<?xml version="1.0" encoding="utf-8"?>
<!-- Generator: Adobe Illustrator 21.0.0, SVG Export Plug-In . SVG Version: 6.00 Build 0)  -->
<svg version="1.1" id="Layer_1" xmlns="http://www.w3.org/2000/svg" xmlns:xlink="http://www.w3.org/1999/xlink" x="0px" y="0px"
	 viewBox="0 0 391.5 337.3" style="enable-background:new 0 0 391.5 337.3;" xml:space="preserve">
<g>
	<path d="M385.5,67.2L198.8,0.5c-2-0.7-4.1-0.7-6.1,0L6,67.2c-3.6,1.3-6,4.7-6,8.6c0,3.8,2.5,7.2,6.2,8.4l75.6,25.2v87.9
		c0,4,2.7,7.5,6.5,8.6l105,30.2c0.8,0.2,1.6,0.4,2.5,0.4s1.7-0.1,2.5-0.4l33.1-9.5c4.8-1.4,7.5-6.4,6.2-11.1
		c-1.4-4.8-6.4-7.5-11.1-6.2l-30.6,8.8l-96-27.6v-75.1l93.1,31c1.8,0.6,3.8,0.6,5.7,0l16.7-5.6c0,0,0,0,0,0l14.1-4.7
		c4.7-1.6,7.3-6.7,5.7-11.4c-1.6-4.7-6.7-7.3-11.4-5.7l-28,9.3l-83.7-27.9L36.6,75.4l159.2-56.9l159.2,56.9l-57.1,19c0,0,0,0,0,0
		l-7,2.3l-5.8,1.9h0l-9,3c-4.7,1.6-7.3,6.7-5.7,11.4c1.6,4.7,6.7,7.3,11.4,5.7l10-3.3v75.1l-11.2,3.2c-4.8,1.4-7.5,6.4-6.2,11.1
		c1.1,3.9,4.7,6.5,8.6,6.5c0.8,0,1.7-0.1,2.5-0.4l17.7-5.1c3.9-1.1,6.5-4.6,6.5-8.6v-87.9l75.6-25.2c3.6-1.2,6.1-4.6,6.2-8.4
		C391.6,72,389.2,68.5,385.5,67.2z"/>
	<path d="M265,117.7c0-0.2,0-0.4,0-0.6c0-0.2,0-0.3-0.1-0.4c0-0.1,0-0.3-0.1-0.4c0-0.2-0.1-0.3-0.1-0.5c0-0.1-0.1-0.2-0.1-0.4
		c0-0.2-0.1-0.3-0.2-0.5c0-0.1-0.1-0.2-0.1-0.4c-0.1-0.1-0.1-0.3-0.2-0.4c-0.1-0.1-0.1-0.3-0.2-0.4c-0.1-0.1-0.1-0.2-0.2-0.4
		c-0.1-0.1-0.2-0.3-0.2-0.4c-0.1-0.1-0.2-0.2-0.2-0.3c-0.1-0.1-0.2-0.3-0.3-0.4c-0.1-0.1-0.2-0.2-0.3-0.3c-0.1-0.1-0.2-0.2-0.3-0.3
		c-0.2-0.2-0.3-0.3-0.5-0.5c0,0-0.1-0.1-0.1-0.1l0,0c0,0,0,0,0,0l-60.2-50.1c-3.8-3.2-9.5-2.7-12.7,1.2c-3.2,3.8-2.7,9.5,1.2,12.7
		l57,47.4v159.6c-10,2.1-17.5,10.9-17.5,21.5v12.2c0,12.1,9.8,21.9,21.9,21.9h12.2c12.1,0,21.9-9.8,21.9-21.9v-12.2
		c0-11.6-9.1-21.2-20.6-21.9V117.9c0,0,0,0,0,0v0C265,117.8,265,117.7,265,117.7z M267.6,303.2v12.2c0,2.2-1.8,3.9-3.9,3.9h-12.2
		c-2.2,0-3.9-1.8-3.9-3.9v-12.2c0-2.2,1.8-3.9,3.9-3.9h12.2C265.8,299.2,267.6,301,267.6,303.2z"/>
</g>
</svg>
