<?xml version="1.0" encoding="utf-8"?>
<!-- Generator: Adobe Illustrator 21.0.0, SVG Export Plug-In . SVG Version: 6.00 Build 0)  -->
<svg version="1.1" id="Camada_1" xmlns="http://www.w3.org/2000/svg" xmlns:xlink="http://www.w3.org/1999/xlink" x="0px" y="0px"
	 viewBox="0 0 19.9 20" style="enable-background:new 0 0 19.9 20;" xml:space="preserve">
<style type="text/css">
	.st0{fill:#231F20;}
</style>
<title></title>
<g id="Card">
	<path class="st0" d="M14.9,13c1.7,0,3-1.3,3-3s-1.3-3-3-3s-3,1.3-3,3S13.2,13,14.9,13c-2.8,0-5,2.2-5,5v1c0,0.6,0.4,1,1,1h8
		c0.6,0,1-0.4,1-1v-1C19.9,15.2,17.7,13,14.9,13z M13.9,10c0-0.6,0.4-1,1-1s1,0.4,1,1s-0.4,1-1,1S13.9,10.6,13.9,10z M11.9,18
		L11.9,18c0-1.7,1.3-3,3-3s3,1.3,3,3H11.9z"/>
	<path class="st0" d="M0.9,13h8c0.6,0,1-0.4,1-1v-1c0-2.8-2.2-5-5-5c1.7,0,3-1.3,3-3s-1.3-3-3-3s-3,1.3-3,3s1.3,3,3,3
		c-2.8,0-5,2.2-5,5v1C-0.1,12.6,0.3,13,0.9,13z M3.9,3c0-0.6,0.4-1,1-1s1,0.4,1,1s-0.4,1-1,1S3.9,3.6,3.9,3z M1.9,11
		c0-1.7,1.3-3,3-3s3,1.3,3,3H1.9z"/>
	<path class="st0" d="M18.9,0h-8c-0.6,0-1,0.4-1,1s0.4,1,1,1h7v2c0,0.6,0.4,1,1,1s1-0.4,1-1V1C19.9,0.4,19.5,0,18.9,0z"/>
	<path class="st0" d="M7.9,20c0.6,0,1-0.4,1-1s-0.4-1-1-1h-6v-2c0-0.6-0.4-1-1-1s-1,0.4-1,1v3c0,0.6,0.4,1,1,1H7.9z"/>
</g>
</svg>
