<?xml version="1.0" ?><svg data-name="Layer 1" id="Layer_1" viewBox="0 0 64 64" xmlns="http://www.w3.org/2000/svg"><title/><rect height="5" width="20" x="33" y="44"/><rect height="5" width="25" x="2" y="57"/><circle cx="43.00598" cy="16" r="3"/><path d="M24,30H62V2H24ZM57,5h2V7H57ZM53,5h2V7H53ZM33.061,14.89423l3.2182-.87488a6.96112,6.96112,0,0,1,.56946-1.36566L35.18774,9.75458l1.56073-1.56073,2.89917,1.66083a6.95975,6.95975,0,0,1,1.36579-.56946L41.88837,6.067a10.04741,10.04741,0,0,1,2.2113.00006l.87488,3.21826a6.96043,6.96043,0,0,1,1.36572.5694l2.89911-1.66089,1.56073,1.56079-1.66083,2.89911a6.95988,6.95988,0,0,1,.5694,1.36572l3.21826.87494a10.05055,10.05055,0,0,1,.00006,2.21124v.00018l-3.21832.87488a6.96088,6.96088,0,0,1-.5694,1.36566l1.66083,2.89905-1.56073,1.56079-2.89911-1.66083a6.95578,6.95578,0,0,1-1.36578.5694L44.09955,25.933l-.00031.00006a10.04837,10.04837,0,0,1-2.211-.00006l-.87487-3.21826a6.959,6.959,0,0,1-1.36573-.5694l-2.89917,1.66083-1.56066-1.56073,1.66082-2.89911a6.96214,6.96214,0,0,1-.56946-1.36578l-3.2182-.875A10.056,10.056,0,0,1,33.061,14.89423Z"/><path d="M15,28A11,11,0,1,0,26,39,11,11,0,0,0,15,28Zm0,14a3,3,0,1,1,3-3A3,3,0,0,1,15,42Z"/><rect height="7" width="2" x="3" y="48"/><rect height="7" width="2" x="24" y="48"/><rect height="4" width="2" x="20" y="51"/><rect height="4" width="2" x="7" y="51"/><rect height="2" width="2" x="11" y="53"/><rect height="2" width="2" x="16" y="53"/><path d="M54.17157,51.34314l-.4967.4967,2.48425,2.46589,3.28033-3.28034A3.987,3.987,0,0,0,54.17157,51.34314Z"/><path d="M56.86884,55.01007l2.48394,2.46558L59.82843,57a3.987,3.987,0,0,0,.318-5.26752Z"/><path d="M51.34314,54.17157A4,4,0,0,0,57,59.82843l1.59705-1.597-5.67792-5.6358Z"/><rect height="8" width="5" x="41" y="35"/><path d="M24,31.08936a12.02435,12.02435,0,0,1,1.81836,2.75274H62V31H24Z"/></svg>